<?xml version="1.0" standalone="no"?>
<!DOCTYPE svg PUBLIC "-//W3C//DTD SVG 20010904//EN"
 "http://www.w3.org/TR/2001/REC-SVG-20010904/DTD/svg10.dtd">
<svg version="1.0" xmlns="http://www.w3.org/2000/svg"
 width="364.000000pt" height="364.000000pt" viewBox="0 0 364.000000 364.000000"
 preserveAspectRatio="xMidYMid meet">
<metadata>
Created by potrace 1.14, written by Peter Selinger 2001-2017
</metadata>
<g transform="translate(0.000000,364.000000) scale(0.100000,-0.100000)"
fill="#000000" stroke="none">
<path d="M1440 3413 c-17 -22 -20 -34 -14 -68 12 -66 11 -157 -2 -210 -7 -27
-37 -97 -65 -154 -78 -157 -93 -229 -74 -357 23 -159 185 -316 250 -244 19 21
21 45 7 127 -19 114 -1 200 63 300 63 98 87 171 91 269 5 121 -23 204 -95 285
-39 45 -93 79 -124 79 -9 0 -25 -12 -37 -27z"/>
<path d="M841 3213 c-24 -19 -25 -27 -17 -116 5 -67 -12 -138 -51 -207 -91
-162 -82 -325 24 -432 52 -53 85 -61 122 -30 20 16 21 22 13 97 -11 98 -2 143
44 217 80 132 92 249 35 360 -51 100 -124 148 -170 111z"/>
<path d="M2064 3216 c-17 -13 -19 -27 -19 -118 l-1 -103 -52 -111 c-79 -168
-82 -274 -10 -383 53 -82 124 -114 162 -72 17 19 17 61 1 152 -7 34 17 106 55
169 72 119 85 239 38 342 -26 57 -78 114 -116 129 -31 12 -35 12 -58 -5z"/>
<path d="M159 2029 c-126 -21 -171 -119 -137 -298 78 -417 232 -814 415 -1071
80 -112 212 -256 286 -313 16 -12 34 -27 41 -34 37 -33 132 -85 183 -98 85
-22 1085 -22 1160 0 58 17 182 103 271 186 59 55 60 55 123 57 35 1 82 4 104
7 22 4 53 9 70 11 45 7 169 51 238 83 319 149 615 500 697 827 42 166 16 273
-83 339 -48 33 -83 37 -305 39 l-196 1 1 65 c2 117 -60 199 -151 201 -328 4
-2692 2 -2717 -2z m3121 -607 c0 -24 -78 -171 -126 -239 -59 -82 -165 -188
-248 -247 -55 -40 -175 -106 -191 -106 -3 0 10 30 29 68 56 108 147 330 160
387 2 6 12 42 24 80 l21 70 166 0 c131 0 165 -3 165 -13z"/>
</g>
</svg>
